<?xml version="1.0" standalone="no"?>
<!DOCTYPE svg PUBLIC "-//W3C//DTD SVG 20010904//EN"
 "http://www.w3.org/TR/2001/REC-SVG-20010904/DTD/svg10.dtd">
<svg version="1.0" xmlns="http://www.w3.org/2000/svg"
 width="261.000000pt" height="261.000000pt" viewBox="0 0 261.000000 261.000000"
 preserveAspectRatio="xMidYMid meet">
<metadata>
Created by potrace 1.14, written by Peter Selinger 2001-2017
</metadata>
<g transform="translate(0.000000,261.000000) scale(0.100000,-0.100000)"
fill="#000000" stroke="none">
<path d="M868 1975 c-1 -1 -24 -6 -49 -9 -246 -33 -444 -229 -499 -493 -18
-88 -21 -294 -6 -368 44 -208 153 -363 316 -445 62 -32 145 -59 205 -68 63 -9
247 -9 300 0 234 41 407 183 475 391 6 21 9 41 6 44 -3 3 -83 6 -178 5 -224 0
-218 0 -218 -15 0 -25 -72 -86 -123 -105 -63 -24 -167 -23 -220 3 -80 38 -132
114 -143 209 l-7 56 453 0 453 0 -6 138 c-3 78 -12 163 -21 197 -26 94 -82
200 -142 265 -123 132 -289 198 -500 198 -51 0 -94 -1 -96 -3z m182 -317 c63
-17 130 -86 153 -157 9 -30 16 -56 13 -58 -4 -4 -477 -5 -482 -1 -7 8 35 110
59 141 53 69 160 101 257 75z"/>
<path d="M1970 1141 c-131 -43 -195 -129 -195 -261 0 -60 5 -85 25 -124 80
-157 294 -194 428 -73 13 12 37 49 53 82 65 134 12 287 -123 356 -46 23 -146
34 -188 20z"/>
</g>
</svg>
